# xmcd
#
# Track frame offsets:
# 150
# 18759
# 38490
#
# Disc length: 773 seconds
#
# Revision: 1
# Processed by: cddbd v1.5.2PL0 Copyright (c) Steve Scherf et al.
# Submitted via: CedeCatalogueitor 2.6.0.6 http://personales.ya.com/cdcatalogueitor
#
DISCID=12030303
DTITLE=Athlete - Wires
DYEAR=1900
DGENRE=
TTITLE0=Wires
TTITLE1=Wires
TTITLE2=Wires
EXTD=
EXTT0=
EXTT1=
EXTT2=
PLAYORDER=
